<svg width="11" height="11" viewBox="0 0 11 11" fill="none" xmlns="http://www.w3.org/2000/svg">
<path id="Icon" fill-rule="evenodd" clip-rule="evenodd" d="M1.11911 8.34763H9.88101C10.3629 8.34763 10.7572 8.74192 10.7572 9.22382C10.7572 9.70572 10.3629 10.1 9.88101 10.1H1.11911C0.637206 10.1 0.24292 9.70572 0.24292 9.22382C0.24292 8.74192 0.637206 8.34763 1.11911 8.34763ZM4.89982 1.30745L2.89772 6.41126C2.77944 6.70917 2.99848 7.03336 3.32267 7.03336C3.51106 7.03336 3.68191 6.91507 3.75201 6.73545L4.12877 5.71907H6.86687L7.24801 6.73545C7.31372 6.91507 7.48458 7.03336 7.67734 7.03336C7.99715 7.03336 8.22058 6.70917 8.10229 6.41126L6.1002 1.30745C5.99944 1.06212 5.76287 0.900024 5.50001 0.900024C5.23715 0.900024 4.9962 1.06212 4.89982 1.30745ZM4.45739 4.8429L5.50006 2.06976L6.54273 4.8429H4.45739Z" fill="#C3CAD9"/>
</svg>
