<svg width="19" height="19" viewBox="0 0 19 19" fill="none" xmlns="http://www.w3.org/2000/svg">
<g id="teenyicons:button-outline" clip-path="url(#clip0_2_139)">
<path id="Vector" d="M7.26667 12.5V10.7M7.26667 10.7V4.70001C7.26667 4.38175 7.3931 4.07652 7.61815 3.85148C7.84319 3.62643 8.14841 3.50001 8.46667 3.50001C8.78493 3.50001 9.09016 3.62643 9.3152 3.85148C9.54025 4.07652 9.66667 4.38175 9.66667 4.70001V9.50001H13.6903C14.7823 9.50001 15.6667 10.3844 15.6667 11.4764V12.5C15.6667 13.9322 15.0977 15.3057 14.0851 16.3184C13.0724 17.3311 11.6988 17.9 10.2667 17.9H9.66667C8.39364 17.9 7.17274 17.3943 6.27256 16.4941C5.37239 15.5939 4.86667 14.373 4.86667 13.1C4.86667 12.4635 5.11953 11.853 5.56962 11.4029C6.01971 10.9529 6.63015 10.7 7.26667 10.7ZM11.4667 7.10001H13.8667C14.6623 7.10001 15.4254 6.78394 15.988 6.22133C16.5506 5.65872 16.8667 4.89566 16.8667 4.10001C16.8667 3.30436 16.5506 2.54129 15.988 1.97869C15.4254 1.41608 14.6623 1.10001 13.8667 1.10001H5.46667C4.67103 1.10001 3.90796 1.41608 3.34535 1.97869C2.78275 2.54129 2.46667 3.30436 2.46667 4.10001C2.46667 4.89566 2.78275 5.65872 3.34535 6.22133C3.90796 6.78394 4.67103 7.10001 5.46667 7.10001" stroke="#EAEAEA" stroke-width="1.2"/>
</g>
<defs>
<clipPath id="clip0_2_139">
<rect width="18" height="18" fill="white" transform="translate(0.666687 0.5)"/>
</clipPath>
</defs>
</svg>
