<svg width="11" height="11" viewBox="0 0 11 11" fill="none" xmlns="http://www.w3.org/2000/svg">
<path id="Icon" fill-rule="evenodd" clip-rule="evenodd" d="M7.27818 4.22731L4.06495 1.01408C3.9921 0.94106 3.89319 0.900024 3.79004 0.900024C3.68689 0.900024 3.58797 0.94106 3.51512 1.01408C3.36304 1.16616 3.36304 1.41183 3.51512 1.56392L4.17024 2.21904L2.16198 4.22731C1.9319 4.45738 1.9319 4.82784 2.16198 5.05401L4.30673 7.19876C4.41981 7.31185 4.5719 7.37034 4.72008 7.37034C4.86826 7.37034 5.02034 7.31185 5.13343 7.19876L7.27818 5.05401C7.50825 4.82784 7.50825 4.45738 7.27818 4.22731ZM2.85225 4.64066L4.72014 2.77278L6.58802 4.64066H2.85225ZM8.22965 5.22561C8.22965 5.22561 7.44974 6.07181 7.44974 6.59045C7.44974 7.0194 7.8007 7.37036 8.22965 7.37036C8.6586 7.37036 9.00956 7.0194 9.00956 6.59045C9.00956 6.07181 8.22965 5.22561 8.22965 5.22561ZM1.60047 8.5402H9.39956C9.82851 8.5402 10.1795 8.89116 10.1795 9.32011C10.1795 9.74906 9.82851 10.1 9.39956 10.1H1.60047C1.17152 10.1 0.820557 9.74906 0.820557 9.32011C0.820557 8.89116 1.17152 8.5402 1.60047 8.5402Z" fill="#C3CAD9"/>
</svg>
