<svg width="19" height="19" viewBox="0 0 19 19" fill="none" xmlns="http://www.w3.org/2000/svg">
<g id="ph:columns">
<path id="Vector" d="M7.64581 2.75H4.83331C4.53494 2.75 4.2488 2.86853 4.03782 3.0795C3.82684 3.29048 3.70831 3.57663 3.70831 3.875V15.125C3.70831 15.4234 3.82684 15.7095 4.03782 15.9205C4.2488 16.1315 4.53494 16.25 4.83331 16.25H7.64581C7.94418 16.25 8.23033 16.1315 8.44131 15.9205C8.65229 15.7095 8.77081 15.4234 8.77081 15.125V3.875C8.77081 3.57663 8.65229 3.29048 8.44131 3.0795C8.23033 2.86853 7.94418 2.75 7.64581 2.75ZM7.64581 15.125H4.83331V3.875H7.64581V15.125ZM13.8333 2.75H11.0208C10.7224 2.75 10.4363 2.86853 10.2253 3.0795C10.0143 3.29048 9.89581 3.57663 9.89581 3.875V15.125C9.89581 15.4234 10.0143 15.7095 10.2253 15.9205C10.4363 16.1315 10.7224 16.25 11.0208 16.25H13.8333C14.1317 16.25 14.4178 16.1315 14.6288 15.9205C14.8398 15.7095 14.9583 15.4234 14.9583 15.125V3.875C14.9583 3.57663 14.8398 3.29048 14.6288 3.0795C14.4178 2.86853 14.1317 2.75 13.8333 2.75ZM13.8333 15.125H11.0208V3.875H13.8333V15.125Z" fill="#EAEAEA"/>
</g>
</svg>
