<svg width="13" height="11" viewBox="0 0 13 11" fill="none" xmlns="http://www.w3.org/2000/svg">
<path id="Icon" fill-rule="evenodd" clip-rule="evenodd" d="M8.08743 3.67044C8.08743 3.48044 8.05678 3.30882 7.99549 3.14946C7.94032 2.98397 7.84838 2.84913 7.7258 2.73267C7.60321 2.61621 7.44998 2.5304 7.26611 2.46298C7.08223 2.40169 6.86158 2.36491 6.61641 2.36491C6.37737 2.36491 6.16284 2.38943 5.98509 2.44459C5.80735 2.49976 5.66024 2.57331 5.54379 2.66525C5.42733 2.76332 5.33539 2.87364 5.2741 3.00236C5.21281 3.13107 5.18216 3.26591 5.18216 3.40689C5.18216 3.70109 5.33539 3.94626 5.63573 4.14853C5.86864 4.30176 6.10768 4.44273 6.49995 4.57757H3.67437C3.64372 4.52854 3.60695 4.47338 3.58243 4.42434C3.42307 4.13014 3.34339 3.79303 3.34339 3.40076C3.34339 3.02687 3.42307 2.68976 3.58856 2.37717C3.74792 2.07071 3.9747 1.80715 4.2689 1.5865C4.56311 1.37198 4.91248 1.20036 5.31088 1.07777C5.71541 0.961317 6.16284 0.900024 6.64705 0.900024C7.14352 0.900024 7.59096 0.967446 8.00162 1.10842C8.40615 1.24326 8.75551 1.4394 9.03746 1.68457C9.32553 1.92974 9.54619 2.22394 9.69942 2.56105C9.85265 2.89816 9.93233 3.26591 9.93233 3.67044H8.08743ZM11.4034 5.19052H1.59657C1.25946 5.19052 0.983643 5.46633 0.983643 5.80344C0.983643 6.14055 1.25946 6.41637 1.59657 6.41637H6.87998C6.9903 6.45927 7.12515 6.50218 7.21709 6.53895C7.44387 6.64315 7.62162 6.74735 7.75033 6.85154C7.87905 6.95574 7.96486 7.0722 8.01389 7.20091C8.05679 7.32349 8.08131 7.46447 8.08131 7.62383C8.08131 7.7648 8.05066 7.89964 7.9955 8.02836C7.94034 8.15094 7.85453 8.26127 7.73807 8.35321C7.62162 8.44515 7.48065 8.51257 7.3029 8.56773C7.12515 8.61677 6.91675 8.64741 6.68384 8.64741C6.42029 8.64741 6.17512 8.6229 5.96059 8.56773C5.74607 8.51257 5.55606 8.42676 5.40283 8.3103C5.2496 8.19385 5.12701 8.04062 5.0412 7.85061C4.95539 7.6606 4.88797 7.38479 4.88797 7.10897H3.06759C3.06759 7.44608 3.11662 7.80158 3.21469 8.07739C3.31276 8.35321 3.44147 8.59838 3.61309 8.81903C3.78471 9.03356 3.98084 9.22356 4.21376 9.38292C4.44054 9.54228 4.69184 9.67713 4.96152 9.78132C5.23121 9.88552 5.51316 9.9652 5.80736 10.0204C6.10156 10.0694 6.39577 10.1 6.68997 10.1C7.18031 10.1 7.62775 10.0449 8.02615 9.92842C8.42455 9.81197 8.76779 9.65261 9.04973 9.44421C9.33168 9.23582 9.55233 8.97226 9.70556 8.6658C9.85879 8.35934 9.93847 8.00997 9.93847 7.6177C9.93847 7.24994 9.87718 6.91896 9.74847 6.63089C9.71782 6.56347 9.68104 6.48992 9.64427 6.42862H11.4034C11.7405 6.42862 12.0163 6.15281 12.0163 5.8157V5.80344C12.0163 5.46633 11.7405 5.19052 11.4034 5.19052Z" fill="#D9D9D9"/>
</svg>
